<svg fill="none" xmlns="http://www.w3.org/2000/svg" viewBox="0 0 162 45">
  <path d="M161.292 0H0v44.743h161.292V0z" fill="#fff"/>
  <path d="M25.07 26.617a905.481 905.481 0 01-8.276-2.677c-.905-.277-1.81-.54-2.715-.792a15.552 15.552 0 01-2.601-1.018c-1.986-1.106-3.117-2.557-3.394-4.355-.264-1.797.365-3.55 1.885-5.26 1.333-1.395 3.017-2.431 5.053-3.11a16.843 16.843 0 016.259-.886c2.149.1 4.047.64 5.693 1.621 1.773 1.056 2.903 2.57 3.394 4.543.176.73.163 1.408-.038 2.037-.188.628-.635 1.112-1.338 1.451-.68.277-1.245.24-1.697-.113a4.652 4.652 0 01-1.131-1.357c-1.006-1.546-2.426-2.344-4.261-2.395a12.7 12.7 0 00-4.204.359c-1.357.34-2.658 1.1-3.903 2.28.98.403 1.842.73 2.583.981 1.647.528 3.3 1.037 4.958 1.527 1.672.478 3.3 1.056 4.883 1.734 1.948.868 3.293 1.993 4.034 3.375.755 1.37.893 2.815.415 4.336-.477 1.508-1.577 2.91-3.299 4.204-2.15 1.559-4.393 2.464-6.73 2.715-2.338.251-4.732-.076-7.183-.98a22.955 22.955 0 01-4.675-2.432c-1.382-.893-1.728-2.125-1.037-3.696.73-1.281 1.955-1.633 3.676-1.055 1.357.578 2.715 1.143 4.072 1.697 2.564.98 5.065.848 7.503-.396.39-.214.754-.471 1.094-.773.34-.314.679-.616 1.018-.905l-.038-.66zm21.624 9.275c-3.922.013-7.12-.685-9.596-2.092-2.463-1.408-4.236-3.419-5.316-6.033-1.056-2.702-1.276-5.618-.66-8.747.615-3.143 1.923-5.757 3.921-7.843 1.885-1.848 4.122-2.822 6.711-2.922 3.532-.163 6.85.59 9.954 2.262a9.183 9.183 0 012.677 2.394c.465.578.704 1.188.717 1.83.012.64-.246 1.256-.773 1.846-.528.541-1.081.78-1.66.717a7.784 7.784 0 01-1.828-.49 68.788 68.788 0 00-8.239-2.093c-.93-.163-1.734-.025-2.412.415-.666.44-1.2 1.074-1.603 1.904-.842 1.596-1.35 3.205-1.527 4.826-.163 1.609.283 3.211 1.339 4.808 1.118 1.545 2.457 2.488 4.015 2.827 1.571.34 3.218.358 4.94.057a24.314 24.314 0 002.978-.679c.98-.289 1.954-.584 2.922-.886 2.262-.703 3.745-.264 4.45 1.32.339.804.339 1.583 0 2.338-.34.741-1.006 1.363-2 1.866-1.696.804-3.349 1.401-4.957 1.79-1.596.378-2.947.572-4.053.585zm28.278-7.88H64.15v5.92c.012.729-.126 1.37-.415 1.923-.277.552-.78.942-1.508 1.168-.842.24-1.59.145-2.244-.283-.64-.414-1.018-1.093-1.13-2.035a75.511 75.511 0 01-.434-9.954 39.337 39.337 0 011.527-9.841c1.08-3.607 3.443-5.957 7.088-7.051 2.262-.59 4.5-.352 6.711.717 2.212 1.055 3.89 2.758 5.034 5.108a22.627 22.627 0 012.036 8.088c.1 1.986.094 3.984-.019 5.995-.113 1.998-.27 3.99-.471 5.976-.126 1.093-.522 1.892-1.188 2.394-.666.515-1.452.698-2.356.547-1.61-.301-2.357-1.54-2.244-3.714.088-.83.189-1.659.302-2.488a44.07 44.07 0 00.132-2.47zm-10.86-5.58c3.872-.302 7.479-.585 10.822-.849a19.797 19.797 0 00-.716-4.015c-.365-1.244-1.1-2.319-2.206-3.224-1.194-.892-2.356-1.225-3.488-.999-1.13.226-1.998 1.012-2.601 2.357a20.234 20.234 0 00-.98 3.167 376.367 376.367 0 01-.83 3.563zm33.501-8.559c0 5.216-.006 10.256-.019 15.12a28.678 28.678 0 01-.339 4.166c-.126.804-.421 1.458-.886 1.96-.453.49-1.119.736-1.998.736-.893-.026-1.559-.29-1.999-.792-.427-.516-.685-1.182-.773-1.999-.05-.54-.063-1.08-.038-1.621.038-.553.057-1.1.057-1.64v-15.44c-1.483.15-2.997.296-4.543.434-1.144.113-2.288.213-3.431.301-.805.076-1.483-.044-2.036-.358-.566-.314-.918-.892-1.056-1.735-.1-.841.082-1.495.547-1.96.465-.465 1.08-.773 1.847-.924a84.933 84.933 0 013.11-.66 24.335 24.335 0 013.13-.433 271.25 271.25 0 0114.29-.528 5.046 5.046 0 013.13 1.226c.364.339.659.779.886 1.32.226.54.289 1.017.188 1.432-.138.402-.446.766-.923 1.093a5.124 5.124 0 01-1.433.717c-.428.125-.893.15-1.395.075-.49-.088-.981-.157-1.471-.207-1.696-.1-3.311-.195-4.845-.283zm24.829 22.02c-3.922.012-7.12-.686-9.596-2.093-2.463-1.408-4.236-3.419-5.317-6.033-1.055-2.702-1.275-5.618-.66-8.747.616-3.143 1.923-5.757 3.922-7.843 1.885-1.848 4.122-2.822 6.711-2.922 3.532-.163 6.85.59 9.954 2.262a9.18 9.18 0 012.677 2.394c.465.578.704 1.188.716 1.83.013.64-.245 1.256-.773 1.846-.527.541-1.08.78-1.658.717a7.774 7.774 0 01-1.829-.49 68.753 68.753 0 00-8.239-2.093c-.929-.163-1.734-.025-2.412.415-.667.44-1.201 1.074-1.603 1.904-.842 1.596-1.351 3.205-1.527 4.826-.163 1.609.283 3.211 1.338 4.808 1.119 1.545 2.458 2.488 4.016 2.827 1.571.34 3.217.358 4.939.057a24.331 24.331 0 002.979-.679c.98-.289 1.954-.584 2.922-.886 2.262-.703 3.745-.264 4.449 1.32.339.804.339 1.583 0 2.338-.339.741-1.005 1.363-1.998 1.866-1.697.804-3.35 1.401-4.959 1.79-1.596.378-2.946.572-4.052.585zm16.948-15.026c2.677-.453 5.328-.899 7.955-1.338.264-2.564.528-5.065.792-7.504.088-.854.352-1.54.792-2.054.452-.528 1.125-.824 2.017-.887.804-.037 1.458.214 1.96.754.516.528.805 1.314.868 2.357a83.526 83.526 0 01-.019 6.843 2296.02 2296.02 0 01-.415 13.121c-.151 2.451-1.169 3.727-3.054 3.827-.905 0-1.653-.333-2.243-.999-.591-.666-.924-1.577-.999-2.733a71.591 71.591 0 01-.038-3.318c.012-1.119.018-2.256.018-3.413-2.463.227-4.889.453-7.276.68.125 1.822.207 3.594.245 5.315-.013 1.22-.302 2.188-.868 2.904-.552.716-1.294 1.08-2.224 1.093-.917 0-1.665-.327-2.243-.98-.566-.666-.861-1.596-.887-2.79-.075-6.196-.1-12.392-.075-18.589a8.17 8.17 0 01.528-2.677c.214-.64.547-1.143.999-1.508.465-.377 1.062-.527 1.791-.452.742.1 1.282.39 1.621.867.34.478.522 1.062.547 1.753.05 2.74.075 5.486.075 8.239.013.414.057.91.133 1.489z" fill="#000"/>
</svg>
