<svg fill="none" xmlns="http://www.w3.org/2000/svg" viewBox="0 0 141 33">
  <path d="M140.364 0H0v32.475h140.364V0z" fill="#fff"/>
  <path d="M10.34 21.422h6.738l.281-1.086c.123-.516.33-.944.62-1.282.301-.348.729-.545 1.283-.592.583-.038 1.062.093 1.438.394.385.301.658.714.818 1.24.319 1.016.483 2.05.493 3.102-.028.94-.324 1.677-.888 2.213-.564.535-1.32.812-2.27.831-3.072.047-6.145.043-9.218-.014-1.437-.028-2.471-.376-3.1-1.043-.62-.676-.93-1.734-.93-3.171-.067-4.135-.142-8.265-.226-12.39 0-.676.06-1.344.183-2.001.084-.555.286-.987.606-1.297.329-.31.775-.46 1.34-.451.553.019.986.202 1.296.55.31.338.498.775.564 1.31.253 2.143.455 4.29.606 6.442.14 2.387.263 4.801.366 7.245zm22.806 5.3c-2.565-.048-4.778-.743-6.639-2.087-1.85-1.353-3.157-3.1-3.918-5.243-.761-2.152-.78-4.45-.057-6.892 1.1-3.468 3.473-5.516 7.118-6.146a47.607 47.607 0 013.214-.507 8.517 8.517 0 013.284.225c1.7.489 3.19 1.302 4.468 2.439s2.237 2.466 2.876 3.989a9.138 9.138 0 01.69 4.721c-.404 3.017-1.564 5.352-3.481 7.006-1.917 1.644-4.435 2.476-7.555 2.494zm.028-4.328c1.955 0 3.505-.47 4.651-1.41 1.156-.948 1.851-2.325 2.086-4.13.142-1.512-.281-2.88-1.268-4.1-.977-1.223-2.33-2.059-4.06-2.51a35.104 35.104 0 00-1.987-.338c-1.372-.197-2.626.075-3.763.818-1.137.742-1.889 1.78-2.255 3.115-.357 1.512-.296 2.912.183 4.2a6.592 6.592 0 002.41 3.115c1.128.789 2.462 1.203 4.003 1.24zm19.973-10.388a676.536 676.536 0 015.666-4.539c.207-.178.418-.352.634-.521a1.71 1.71 0 01.69-.324c.31-.047.64-.052.987-.014.348.028.62.131.818.31.432.526.606 1.151.522 1.874-.179.668-.555 1.25-1.128 1.748-1.88 1.673-3.763 3.346-5.652 5.018a1.833 1.833 0 00-.55 1.227c-.01 1.24 0 2.48.028 3.72.029 1.232.033 2.467.014 3.708-.028.751-.225 1.324-.592 1.719-.357.395-.836.602-1.437.62-.62.01-1.133-.183-1.537-.578-.394-.404-.605-.991-.634-1.761a82.294 82.294 0 01.099-7.302c.066-.789-.202-1.423-.804-1.903a81.876 81.876 0 01-3.988-3.89 12.34 12.34 0 01-1.227-1.564c-1.043-1.55-1.095-2.702-.155-3.454.47-.394.954-.507 1.452-.338.507.16 1.109.601 1.804 1.325a276.003 276.003 0 004.99 4.919zm22.2 8.57h-8.09v4.426c.008.545-.095 1.024-.311 1.437-.207.414-.583.705-1.128.874-.63.179-1.188.109-1.677-.211-.48-.31-.761-.817-.846-1.522a56.647 56.647 0 01-.324-7.442 29.41 29.41 0 011.142-7.358c.808-2.697 2.574-4.454 5.3-5.272 1.691-.441 3.364-.263 5.017.536 1.654.79 2.908 2.062 3.764 3.82a16.921 16.921 0 011.522 6.047 42.16 42.16 0 01-.014 4.482 101.105 101.105 0 01-.353 4.468c-.093.817-.39 1.414-.888 1.79-.498.385-1.085.522-1.761.409-1.203-.226-1.762-1.151-1.678-2.777.066-.62.141-1.24.226-1.86.047-.555.08-1.17.098-1.847zm-8.12-4.172c2.895-.226 5.592-.437 8.091-.634a14.807 14.807 0 00-.535-3.003c-.273-.93-.823-1.733-1.65-2.41-.892-.667-1.761-.916-2.607-.747-.846.17-1.494.756-1.945 1.762-.3.742-.545 1.531-.733 2.368-.188.827-.394 1.715-.62 2.664zm18.832 5.018h6.737l.282-1.086c.122-.516.33-.944.62-1.282.3-.348.729-.545 1.283-.592.582-.038 1.062.093 1.438.394.385.301.657.714.817 1.24a10.59 10.59 0 01.493 3.102c-.028.94-.324 1.677-.888 2.213-.563.535-1.32.812-2.269.831-3.073.047-6.145.043-9.218-.014-1.438-.028-2.471-.376-3.101-1.043-.62-.676-.93-1.734-.93-3.171a2711.83 2711.83 0 00-.226-12.39c0-.676.061-1.344.184-2.001.084-.555.286-.987.606-1.297.329-.31.775-.46 1.338-.451.555.019.987.202 1.297.55.31.338.498.775.564 1.31.254 2.143.456 4.29.606 6.442.141 2.387.264 4.801.367 7.245zm23.806-11.417c0 3.9-.004 7.667-.014 11.304a21.344 21.344 0 01-.254 3.115c-.093.601-.314 1.09-.662 1.466-.338.366-.836.55-1.494.55-.667-.02-1.165-.217-1.494-.592-.32-.386-.512-.884-.578-1.495a8.61 8.61 0 01-.028-1.212c.028-.413.042-.822.042-1.226V10.37c-1.109.113-2.241.22-3.397.324-.855.085-1.71.16-2.565.226-.601.056-1.11-.033-1.523-.268-.422-.235-.685-.667-.789-1.297-.075-.63.061-1.118.41-1.466.347-.347.807-.577 1.38-.69a63.78 63.78 0 012.326-.494c.78-.16 1.56-.267 2.34-.324 3.561-.225 7.122-.357 10.684-.394a3.77 3.77 0 012.339.916c.273.253.494.582.663.986.169.404.216.762.141 1.072-.103.3-.334.573-.691.817a3.803 3.803 0 01-1.071.536 2.403 2.403 0 01-1.043.056 14.922 14.922 0 00-1.099-.155c-1.269-.075-2.476-.146-3.623-.211zm15.899 2.001a671.34 671.34 0 015.667-4.539c.206-.178.418-.352.634-.521.226-.17.456-.277.691-.324.31-.047.639-.052.986-.014.348.028.62.131.818.31.432.526.606 1.151.521 1.874-.178.668-.554 1.25-1.127 1.748-1.88 1.673-3.764 3.346-5.652 5.018a1.828 1.828 0 00-.55 1.227c-.009 1.24 0 2.48.028 3.72.028 1.232.033 2.467.014 3.708-.028.751-.225 1.324-.592 1.719-.357.395-.836.602-1.438.62-.62.01-1.132-.183-1.536-.578-.394-.404-.606-.991-.634-1.761a81.953 81.953 0 01.099-7.302c.065-.789-.202-1.423-.804-1.903a81.792 81.792 0 01-3.989-3.89c-.451-.489-.86-1.01-1.226-1.564-1.043-1.55-1.095-2.702-.155-3.454.47-.394.954-.507 1.452-.338.507.16 1.109.601 1.804 1.325a279.248 279.248 0 004.989 4.919z" fill="#000"/>
</svg>
