<svg fill="none" xmlns="http://www.w3.org/2000/svg" viewBox="0 0 117 84">
  <path d="M105.3 0H11.7C5.265 0 0 4.68 0 10.4v62.4c0 5.72 5.265 10.4 11.7 10.4h93.6c6.435 0 11.7-4.68 11.7-10.4V10.4C117 4.68 111.735 0 105.3 0zM11.7 5.2h93.6c2.05 0 3.852.946 4.896 2.371L58.5 53.524 6.804 7.57C7.848 6.146 9.65 5.2 11.7 5.2zm0 72.8c-3.226 0-5.85-2.332-5.85-5.2V14.076l52.65 46.8 52.65-46.8V72.8c0 2.868-2.624 5.2-5.85 5.2H11.7z" fill="#fff"/>
  <path d="M105.3 0H11.7C5.265 0 0 4.68 0 10.4v62.4c0 5.72 5.265 10.4 11.7 10.4h93.6c6.435 0 11.7-4.68 11.7-10.4V10.4C117 4.68 111.735 0 105.3 0zM11.7 5.2h93.6c2.05 0 3.852.946 4.896 2.371L58.5 53.524 6.804 7.57C7.848 6.146 9.65 5.2 11.7 5.2zm0 72.8c-3.226 0-5.85-2.332-5.85-5.2V14.076l52.65 46.8 52.65-46.8V72.8c0 2.868-2.624 5.2-5.85 5.2H11.7z" stroke="#000"/>
</svg>
